<svg width="220" height="56" viewBox="0 0 220 56" xmlns="http://www.w3.org/2000/svg" xmlns:xlink="http://www.w3.org/1999/xlink" role="img">
  <title>Написать в Telegram</title>
  <defs>
    <linearGradient id="tgBg" x1="0%" y1="0%" x2="100%" y2="100%">
      <stop offset="0%" style="stop-color:#29B6F6"/>
      <stop offset="100%" style="stop-color:#0288D1"/>
    </linearGradient>
    <clipPath id="iconClip">
      <circle cx="28" cy="28" r="16"/>
    </clipPath>
  </defs>

  <!-- pill background -->
  <rect width="220" height="56" rx="28" fill="url(#tgBg)"/>

  <!-- telegram icon scaled to 32x32, centered at (28,28) -->
  <g transform="translate(12, 12) scale(0.1333)">
    <circle fill-rule="evenodd" clip-rule="evenodd" fill="rgba(255,255,255,0.2)" cx="120.1" cy="120.1" r="120.1"/>
    <path fill-rule="evenodd" clip-rule="evenodd" fill="#FFFFFF" d="M54.3,118.8c35-15.2,58.3-25.3,70-30.2 c33.3-13.9,40.3-16.3,44.8-16.4c1,0,3.2,0.2,4.7,1.4c1.2,1,1.5,2.3,1.7,3.3s0.4,3.1,0.2,4.7c-1.8,19-9.6,65.1-13.6,86.3 c-1.7,9-5,12-8.2,12.3c-7,0.6-12.3-4.6-19-9c-10.6-6.9-16.5-11.2-26.8-18c-11.9-7.8-4.2-12.1,2.6-19.1c1.8-1.8,32.5-29.8,33.1-32.3 c0.1-0.3,0.1-1.5-0.6-2.1c-0.7-0.6-1.7-0.4-2.5-0.2c-1.1,0.2-17.9,11.4-50.6,33.5c-4.8,3.3-9.1,4.9-13,4.8 c-4.3-0.1-12.5-2.4-18.7-4.4c-7.5-2.4-13.5-3.7-13-7.9C45.7,123.3,48.7,121.1,54.3,118.8z"/>
  </g>

  <!-- label -->
  <text x="124" y="33" font-family="'Segoe UI', Arial, sans-serif" font-size="15" font-weight="600" fill="white" text-anchor="middle" letter-spacing="0.3">Написать в Telegram</text>
</svg>
